<?xml version="1.0" encoding="UTF-8"?>
<svg id="Lag_2" xmlns="http://www.w3.org/2000/svg" version="1.1" viewBox="0 0 1920 1080">
  <!-- Generator: Adobe Illustrator 30.0.0, SVG Export Plug-In . SVG Version: 2.1.1 Build 123)  -->
  <defs>
    <style>
      .st0 {
        fill: #99b5c8;
      }
    </style>
  </defs>
  <path class="st0" d="M1250.8,187.18c1.48.48,1.56,1.96,2.22,4,1.42,6.57,1.96,14.35,3.62,21.13,5.1,21.39,17.9,41.38,14.19,63.86-2.46,17.26-12.14,34.14-19.19,50.48-19.19,40.67-25.08,84.2-13.17,127.9,4.3,17.09,10.33,34.36,18.17,50.04,19.7,37.29,46.81,69.52,67.91,105.92,37.04,63.26,47.36,151.96,9.92,217.13-32.43,56.45-109.54,79.28-169.25,56.39-17.4-7.21-34.35-17.25-47.3-31.16-17.75-20.6-30.45-48.58-30.51-76.17,1.22-20.99,6.96.87,8.97,7.93,7.53,25.86,24.04,48.95,46.9,63.15,27.15,17.5,60.75,20.39,91.97,14.19,46.57-8.51,81.87-48.56,92.63-93.59,17.08-64.1-2.85-133.8-44.43-184.32-23.14-29.51-54.76-50.23-79.07-78.57-26.84-32.1-43.25-61.95-35.15-105.05,6.74-48.62,43.93-78.92,70.63-116.64,5.06-8.04,8.71-17.07,9.32-26.58,1.01-19.65-9.22-40.83-3.33-60.82.62-2.4,1.34-4.46,2.06-6.01,1.01-2.16,2.01-3.29,2.85-3.22h.04Z"/>
  <path class="st0" d="M1115.59,777.38c-2.2,1.32.94,10.29,3.41,16.27,2.56,5.86,5.77,11.83,9.58,17.03,19.46,27.33,54.5,35.86,86.38,35.86,11.95-.29,24.1-2.71,35.15-7.42,12.26-5.73,23.83-13.57,33.25-23.33,14.97-15.61,25.12-35.37,31-56.16,8.03-28.54,4.78-59.72-3.44-87.95-4.08-14.1-11.02-28.81-9.49-5.15,1.97,28.77,5.35,60.83-6.96,88.21-12.62,28.43-37.78,51.46-67.55,60.76-25.15,7.65-52.94,2.54-75.7-9.81-9.42-4.94-18.62-13.09-25.46-20.53-2.86-3.17-9.14-8.79-10.13-7.81h-.04Z"/>
  <path class="st0" d="M1338.53,326.63c-.33,1.08-1.47,1.62-2.41,2.2-3.22,1.65-10.15,3.3-14.59,6.56-7.46,5.03-13.09,12.17-17.39,20-7.33,12.3-10.11,26.53-10.6,40.59-.53,10.45.14,21.03,1.1,31.48,2.56,22.83,11.9,43.42,22.08,63.83,9.47,17.69,20.27,34.85,31.18,52.17,4.87,7.75,9.65,14.88,14.29,22.41,4.92,7.96,9.1,16.46,13.26,24.91,12.27,25.05,18.27,51.67,23.47,78.8,1.32,7.27,2.24,15.01,2.36,22.65.52,19.58-1.05,39.37-5.56,58.18-2.39,9.54-6.09,18.8-9.16,28.16-2.93,8.64-4.61,16.76-8.35,25.25-3.01,6.94-7.15,14.17-10.92,20.51-.85,1.33-1.39,1.97-1.56,1.75-.15-.28-.04-.77.03-1.19.89-4.73,5.14-17.24,7-24.21,2.81-9.95,5.14-20.17,7.39-30.3,2.14-9.33,2.6-18.56,3.09-28.21.55-10.04,1.05-18.53-.43-28.52-2.71-17.81-3.72-37.86-9.62-54.79-4.1-12.4-7.36-25.14-13.29-36.72-5.07-9.92-10.35-20.85-15.92-30.6-4.17-7-9.07-13.97-13.67-20.92-9.24-14.14-18.61-26.93-27.75-40.08-7.8-11.7-15.39-24.43-22.95-36.53-7.7-12.07-11.71-25.69-16.96-38.95-3.45-8.85-5.17-16.77-7.14-26.31-1.35-6.71-3.05-13.68-3.81-20.35-.95-9.4.78-18.29,2.14-27.99,1.07-6.93,3.04-13.72,5.66-20.19,7.26-19,21.83-37.04,42.81-40.85,9.52-2.24,19.2-2.11,28.45,1.12,2.67,1.04,7.97,3.07,7.79,6.09l-.02.06Z"/>
  <g>
    <path class="st0" d="M531.72,580h-6.72v12.22h-6.36v-31.16h15.28c2.18.04,3.86.31,5.04.8,1.18.49,2.17,1.22,2.99,2.18.68.79,1.21,1.66,1.61,2.62s.59,2.05.59,3.28c0,1.48-.37,2.93-1.12,4.36-.75,1.43-1.98,2.44-3.7,3.03,1.44.58,2.46,1.4,3.05,2.46.6,1.06.9,2.69.9,4.87v2.09c0,1.42.06,2.39.17,2.9.17.8.56,1.4,1.18,1.78v.78h-7.17c-.2-.69-.34-1.25-.42-1.67-.17-.87-.26-1.77-.27-2.68l-.04-2.9c-.03-1.99-.39-3.31-1.09-3.97-.7-.66-2-.99-3.92-.99ZM535.67,574.34c1.3-.59,1.94-1.76,1.94-3.51,0-1.89-.63-3.16-1.88-3.8-.7-.37-1.76-.55-3.17-.55h-7.57v8.37h7.38c1.47,0,2.56-.17,3.3-.51Z"/>
    <path class="st0" d="M571.44,578.61h-15.13v8.01h17.25v5.6h-23.61v-31.16h22.85v5.52h-16.49v6.62h15.13v5.41Z"/>
    <path class="st0" d="M589.93,587.72c1.54,0,2.78-.17,3.74-.51,1.82-.65,2.73-1.85,2.73-3.61,0-1.03-.45-1.83-1.35-2.39-.9-.55-2.32-1.04-4.25-1.46l-3.3-.74c-3.24-.73-5.48-1.53-6.72-2.39-2.1-1.44-3.15-3.68-3.15-6.74,0-2.79,1.01-5.11,3.04-6.95,2.03-1.85,5.01-2.77,8.94-2.77,3.28,0,6.08.87,8.4,2.61,2.32,1.74,3.53,4.27,3.65,7.58h-6.26c-.11-1.87-.93-3.21-2.45-4-1.01-.52-2.28-.78-3.78-.78-1.68,0-3.02.34-4.02,1.01s-1.5,1.62-1.5,2.83c0,1.11.49,1.95,1.48,2.5.63.37,1.99.8,4.06,1.29l5.37,1.29c2.35.56,4.13,1.32,5.33,2.26,1.86,1.47,2.79,3.59,2.79,6.36s-1.09,5.21-3.27,7.09-5.25,2.82-9.23,2.82-7.25-.93-9.58-2.78c-2.33-1.85-3.49-4.4-3.49-7.64h6.21c.2,1.42.58,2.49,1.16,3.19,1.06,1.28,2.87,1.92,5.43,1.92Z"/>
    <path class="st0" d="M630.13,561.07v5.52h-9.32v25.64h-6.55v-25.64h-9.36v-5.52h25.24Z"/>
    <path class="st0" d="M648.99,585.82h-11.48l-2.16,6.4h-6.81l11.12-31.16h7.36l11.03,31.16h-7.06l-2.01-6.4ZM647.17,580.45l-3.89-12.26-4.02,12.26h7.91Z"/>
    <path class="st0" d="M680.44,580.22v-19.15h6.62v19.15c0,3.31-.51,5.89-1.54,7.74-1.92,3.38-5.57,5.07-10.97,5.07s-9.06-1.69-10.99-5.07c-1.03-1.85-1.54-4.42-1.54-7.74v-19.15h6.62v19.15c0,2.14.25,3.71.76,4.69.79,1.75,2.51,2.62,5.16,2.62s4.35-.87,5.14-2.62c.51-.99.76-2.55.76-4.69Z"/>
    <path class="st0" d="M706.5,580h-6.72v12.22h-6.36v-31.16h15.28c2.18.04,3.86.31,5.04.8,1.18.49,2.17,1.22,2.99,2.18.68.79,1.21,1.66,1.61,2.62s.59,2.05.59,3.28c0,1.48-.37,2.93-1.12,4.36-.75,1.43-1.98,2.44-3.7,3.03,1.44.58,2.46,1.4,3.05,2.46.6,1.06.9,2.69.9,4.87v2.09c0,1.42.06,2.39.17,2.9.17.8.56,1.4,1.18,1.78v.78h-7.17c-.2-.69-.34-1.25-.42-1.67-.17-.87-.26-1.77-.27-2.68l-.04-2.9c-.03-1.99-.39-3.31-1.09-3.97-.7-.66-2-.99-3.92-.99ZM710.45,574.34c1.3-.59,1.94-1.76,1.94-3.51,0-1.89-.63-3.16-1.88-3.8-.7-.37-1.76-.55-3.17-.55h-7.57v8.37h7.38c1.47,0,2.56-.17,3.3-.51Z"/>
    <path class="st0" d="M742.77,585.82h-11.48l-2.16,6.4h-6.81l11.12-31.16h7.36l11.03,31.16h-7.06l-2.01-6.4ZM740.96,580.45l-3.89-12.26-4.02,12.26h7.91Z"/>
    <path class="st0" d="M780.99,592.22h-6.51l-12.72-22.13v22.13h-6.07v-31.16h6.83l12.41,21.75v-21.75h6.07v31.16Z"/>
    <path class="st0" d="M809.69,561.07v5.52h-9.32v25.64h-6.55v-25.64h-9.36v-5.52h25.24Z"/>
  </g>
  <g>
    <path class="st0" d="M522.47,614.99h83.2v14.7h-66.95v36.41h58.87v14.29h-58.87v54.54h-16.25v-119.94Z"/>
    <path class="st0" d="M611.35,614.99h16.25v105.65h60.17v14.29h-76.42v-119.94Z"/>
    <path class="st0" d="M727.5,614.99h18.37l43.52,119.94h-17.8l-12.17-35.92h-47.44l-12.98,35.92h-16.66l45.15-119.94ZM754.2,685.78l-18.21-52.99-19.35,52.99h37.56Z"/>
    <path class="st0" d="M792.06,614.99h23.28l34.49,101.4,34.24-101.4h23.11v119.94h-15.51v-70.79c0-2.45.05-6.5.16-12.17.11-5.66.16-11.73.16-18.21l-34.24,101.16h-16.1l-34.57-101.16v3.67c0,2.94.08,7.42.25,13.43.16,6.02.24,10.44.24,13.27v70.79h-15.51v-119.94Z"/>
    <path class="st0" d="M914.62,614.99h23.28l34.49,101.4,34.24-101.4h23.11v119.94h-15.51v-70.79c0-2.45.05-6.5.16-12.17.11-5.66.16-11.73.16-18.21l-34.24,101.16h-16.1l-34.57-101.16v3.67c0,2.94.08,7.42.25,13.43.16,6.02.24,10.44.24,13.27v70.79h-15.51v-119.94Z"/>
    <path class="st0" d="M1037.48,614.99h87.03v14.7h-71.19v36.41h65.81v13.88h-65.81v40.66h72.42v14.29h-88.26v-119.94Z"/>
    <path class="st0" d="M1132.4,614.99h19.14l59.81,96.91v-96.91h15.51v119.94h-18.25l-60.7-96.79v96.79h-15.51v-119.94Z"/>
  </g>
  <path class="st0" d="M1370.24,257.21c-2.96,2.98-6.55,4.47-10.75,4.47s-7.78-1.49-10.73-4.47c-2.94-2.96-4.4-6.55-4.4-10.77s1.48-7.75,4.44-10.71c2.95-2.95,6.51-4.42,10.69-4.42s7.79,1.48,10.75,4.42c2.96,2.95,4.44,6.52,4.44,10.71s-1.48,7.79-4.44,10.77ZM1350.27,237.22c-2.54,2.55-3.8,5.63-3.8,9.24s1.26,6.74,3.78,9.3c2.54,2.56,5.62,3.85,9.24,3.85s6.7-1.28,9.24-3.85,3.8-5.66,3.8-9.3-1.27-6.69-3.8-9.24c-2.55-2.56-5.63-3.85-9.24-3.85s-6.67,1.28-9.22,3.85ZM1359.2,238.06c2.07,0,3.58.2,4.55.6,1.72.72,2.58,2.12,2.58,4.22,0,1.49-.54,2.59-1.63,3.29-.58.37-1.38.64-2.41.81,1.3.21,2.26.75,2.86,1.63.6.88.91,1.74.91,2.58v1.22c0,.39.01.8.04,1.24.03.44.08.73.14.87l.1.21h-2.75c-.01-.05-.03-.11-.04-.16-.01-.06-.03-.12-.04-.19l-.06-.54v-1.32c0-1.92-.52-3.19-1.57-3.81-.62-.36-1.71-.54-3.27-.54h-2.32v6.55h-2.94v-16.66h5.83ZM1362.37,240.69c-.74-.41-1.92-.62-3.56-.62h-2.51v6.04h2.65c1.24,0,2.18-.12,2.8-.37,1.15-.46,1.72-1.32,1.72-2.6,0-1.21-.37-2.03-1.11-2.44Z"/>
</svg>