<?xml version="1.0" encoding="UTF-8"?>
<svg id="Lag_2" xmlns="http://www.w3.org/2000/svg" version="1.1" viewBox="0 0 1920 1080">
  <!-- Generator: Adobe Illustrator 30.0.0, SVG Export Plug-In . SVG Version: 2.1.1 Build 123)  -->
  <defs>
    <style>
      .st0 {
        fill: #fff;
      }

      .st1 {
        fill: #99b5c8;
      }
    </style>
  </defs>
  <path class="st0" d="M917.05,848.2h-388.59c0-43.73,0-87.46,0-131.19.59.26,1.17.56,1.77.79.94.36,1.94,1.05,2.83.93,2.83-.39,5.86-.6,8.35-1.83,2.23-1.09,4.42-1.66,6.76-2.07.53-.09,1.04-.27,1.57-.41,3.04-.77,5.79-2.25,8.98-2.84,4.39-.81,8.6-2.68,12.95-3.94,2.89-.84,5.74-1.87,8.69-2.67,4.48-1.21,8.93-2.58,13.34-4,2.65-.86,5.27-1.73,7.98-2.43,4.13-1.07,8.06-2.78,12.31-3.64,3.5-.7,6.69-2.69,10.35-3.22,2.99-.43,5.53-2.19,8.63-2.73,4.69-.82,9.18-2.82,13.8-4.21,2.55-.76,4.95-2.04,7.69-2.28.89-.08,1.84-.21,2.62-.6,3.01-1.53,6.23-2.33,9.49-3.03,1.16-.25,2.45-.41,3.4-1.03,2.51-1.64,4.08-1.81,5.87.52,1.91,2.49,3.28,5.38,4.93,8.07,3.5,5.73,6.84,11.57,10.6,17.13,4.83,7.15,9.75,14.26,15.07,21.04,7.21,9.19,14.67,18.21,22.36,27.01,5.09,5.81,10.58,11.31,16.27,16.55,5.5,5.07,11.48,9.63,17.24,14.41,2.85,2.37,5.62,4.84,8.56,7.08,3.42,2.6,6.97,5.02,10.5,7.46,2.79,1.93,5.62,3.8,8.47,5.63,2.61,1.67,5.26,3.3,7.93,4.88,2.93,1.73,5.88,3.44,8.87,5.06,2.57,1.4,5.23,2.64,7.83,3.98,3.27,1.69,6.51,3.46,9.8,5.12,1.06.53,2.29.71,3.38,1.19,4.15,1.82,8.27,3.72,12.42,5.54,1.84.81,3.72,1.54,5.61,2.23,1.34.49,2.74.85,4.1,1.29,1.24.4,2.47.86,3.72,1.25,2.15.68,4.3,1.34,6.46,1.98,1.13.34,2.29.6,3.42.95,1.97.62,3.91,1.38,5.9,1.92,1.9.51,4.03.45,5.75,1.28,3.33,1.62,6.72,2.37,10.41,2.4,1.75.02,3.5.64,5.23,1.08,1.62.4,3.18,1.21,4.81,1.33,5.14.38,10.29.5,15.44.79,2.5.14,4.34,1.66,6.12,3.22Z"/>
  <path class="st1" d="M917.46,846.3c-2.17-.47-4.41-1.21-6.54-1.33-5.14-.29-10.3-.4-15.44-.79-1.63-.12-3.19-.92-4.81-1.33-1.73-.43-3.48-1.06-5.23-1.08-3.68-.03-7.07-.79-10.41-2.4-1.72-.83-3.85-.77-5.75-1.28-2-.54-3.93-1.29-5.9-1.92-1.13-.36-2.28-.62-3.42-.95-2.16-.65-4.31-1.31-6.46-1.98-1.25-.39-2.47-.85-3.72-1.25-1.36-.44-2.76-.8-4.1-1.29-1.89-.69-3.77-1.42-5.61-2.23-4.15-1.82-8.27-3.72-12.42-5.54-1.09-.48-2.32-.66-3.38-1.19-3.29-1.65-6.53-3.42-9.8-5.12-2.6-1.35-5.26-2.59-7.83-3.98-2.99-1.62-5.94-3.33-8.87-5.06-2.67-1.58-5.32-3.2-7.93-4.88-2.85-1.83-5.68-3.7-8.47-5.63-3.53-2.44-7.09-4.87-10.5-7.46-2.95-2.24-5.71-4.72-8.56-7.08-5.76-4.79-11.74-9.34-17.24-14.41-5.68-5.24-11.18-10.74-16.27-16.55-7.7-8.79-15.15-17.81-22.36-27.01-5.32-6.78-10.24-13.89-15.07-21.04-3.75-5.56-7.09-11.4-10.6-17.13-1.65-2.69-3.02-5.58-4.93-8.07-1.79-2.33-3.36-2.15-5.87-.52-.95.62-2.24.78-3.4,1.03-3.27.69-6.49,1.49-9.49,3.03-.78.4-1.73.52-2.62.6-2.73.24-5.13,1.52-7.69,2.28-4.62,1.38-9.11,3.39-13.8,4.21-3.1.54-5.64,2.3-8.63,2.73-3.65.53-6.85,2.52-10.35,3.22-4.25.86-8.18,2.57-12.31,3.64-2.71.7-5.33,1.57-7.98,2.43-4.41,1.43-8.86,2.8-13.34,4-2.95.79-5.8,1.82-8.69,2.67-4.35,1.27-8.56,3.13-12.95,3.94-3.19.59-5.94,2.06-8.98,2.84-.52.13-1.04.31-1.57.41-2.34.41-4.54.98-6.76,2.07-2.49,1.22-5.52,1.43-8.35,1.83-.88.12-1.89-.58-2.83-.93-.6-.23-1.18-.52-1.77-.79,0-1.56,0-3.12,0-4.69,2.54-.68,5.09-1.3,7.61-2.04,5.06-1.49,10.09-3.04,15.14-4.56,4.93-1.49,9.87-2.96,14.81-4.45,2.29-.69,4.58-1.41,6.86-2.13,5.55-1.74,11.08-3.54,16.64-5.23,5.28-1.6,10.59-3.07,15.87-4.66,5.62-1.69,11.21-3.46,16.81-5.2,3.49-1.08,6.97-2.2,10.47-3.25,7.75-2.33,15.52-4.61,23.27-6.96,4.69-1.42,9.35-2.97,14.04-4.41,1.34-.41,1.36-1.28.56-1.97-1.98-1.71-2.53-4-3-6.37-.01-.06-.02-.12-.05-.17-1.66-3.13-3.21-6.32-5.02-9.35-1.27-2.12-.67-4.09,1.77-4.37,1.6-.19,3.26-.22,4.85,0,.66.09,1.56.97,1.71,1.64.58,2.5.8,5.06,2.82,7.03.57.56.54,1.69.91,2.5.54,1.17,1.22,2.27,1.78,3.43.49,1.01,1,2.03,1.32,3.1.45,1.49,1.24,2.13,2.79,1.61,2.84-.95,5.67-1.95,8.54-2.81,5.9-1.78,11.83-3.48,17.75-5.21,3.11-.91,6.23-1.76,9.33-2.69,6.36-1.91,12.72-3.83,19.06-5.81,5.37-1.68,10.69-3.53,16.07-5.18,7.8-2.4,15.64-4.65,23.45-7.02,6.66-2.02,13.29-4.15,19.96-6.14,4.88-1.45,9.82-2.68,14.69-4.14,4.7-1.41,9.34-3.04,14.04-4.47,5.85-1.78,11.73-3.44,17.6-5.19,3.96-1.18,7.91-2.41,11.86-3.63,3.73-1.14,7.47-2.26,11.18-3.44,5.08-1.62,10.11-3.37,15.21-4.91,6.08-1.84,12.23-3.46,18.32-5.28,4.83-1.45,9.59-3.09,14.41-4.58,7.56-2.34,15.13-4.65,22.71-6.91,8.21-2.45,16.48-4.74,24.67-7.24,9.23-2.82,18.4-5.84,27.63-8.67,4.93-1.51,9.95-2.71,14.87-4.22,5.32-1.64,10.55-3.59,15.89-5.2,5.33-1.61,10.76-2.88,16.1-4.47,5.69-1.69,11.3-3.66,16.98-5.37,5.56-1.67,11.17-3.16,16.76-4.71,1.5-.41,2.46.12,2.73,1.72.1.59.23,1.18.4,1.76.71,2.35.68,2.47-1.69,3.36-3.85,1.44-7.49,3.55-11.76,3.62-.51,0-1,.39-1.51.54-2.97.88-5.95,1.73-8.91,2.62-1.03.31-2.04.68-3.03,1.08-1.1.45-2.13,1.15-3.26,1.45-5.22,1.39-10.64,2.24-15.66,4.15-3.88,1.47-7.84,2.42-11.74,3.66-3.17,1.02-6.18,2.49-9.58,2.8-.84.08-1.65.64-2.46,1.01-.54.25-1.04.64-1.6.8-5.52,1.52-11.05,2.97-16.56,4.53-1.65.47-3.2,1.33-4.84,1.85-1.7.54-3.48.84-5.2,1.34-1.42.41-2.79.99-4.2,1.45-1.87.61-3.76,1.18-5.64,1.75-1.98.6-3.96,1.21-5.95,1.77-1.9.53-3.82.99-5.72,1.49-.97.26-2.06.36-2.88.87-2.36,1.49-4.94,2.12-7.66,2.38-.65.06-1.36.09-1.93.37-3.53,1.74-7.2,2.96-11.15,3.3-.45.04-.86.39-1.31.55-2.18.76-4.37,1.51-6.55,2.25-.22.07-.49,0-.71.07-4.78,1.47-9.56,2.96-14.34,4.42-2.33.71-4.69,1.35-7.03,2.04-1.08.32-2.15.72-3.23,1.07-2.25.72-4.51,1.43-6.77,2.13-1.52.47-3.04.91-4.56,1.38-1.88.58-3.75,1.21-5.64,1.78-1.59.48-3.2.9-4.8,1.34-2.47.69-4.95,1.35-7.41,2.08-1.2.36-2.35.89-3.54,1.27-2.04.66-4.09,1.25-6.13,1.9-1.35.43-2.69.88-4.03,1.34-1.58.54-3.13,1.44-4.74,1.58-2.88.26-5.43,1.34-8.02,2.42-.93.39-1.95.56-2.93.86-2.33.71-4.64,1.5-6.98,2.15-1.95.54-3.94.91-5.91,1.38-.86.21-1.89.24-2.54.74-2.44,1.85-5.3,2.08-8.14,2.52-1.05.16-2.06.58-3.08.9-2.44.76-4.88,1.52-7.31,2.32-1.93.64-3.81,1.4-5.75,1.99-1.65.51-3.37.82-5.03,1.28-1.32.37-2.6.87-3.92,1.26-5.79,1.74-11.59,3.47-17.38,5.19-.85.25-1.72.45-2.57.72-2.66.83-5.31,1.7-7.97,2.53-.91.28-1.97.3-2.73.79-2.58,1.63-5.43,2.15-8.38,2.5-.82.1-1.76.25-2.38.72-2.43,1.85-5.32,2.03-8.14,2.54-1.26.23-2.45.84-3.68,1.25-1.87.62-3.74,1.25-5.63,1.82-1.7.52-3.42.99-5.14,1.46-2.36.66-4.72,1.3-7.07,1.95-.64.17-1.34.23-1.9.54-3.14,1.77-6.56,2.46-10.06,3.1-2.6.48-5.03,1.91-7.62,2.48-2.12.47-4.11.94-6.04,2.05-1.62.93-3.57,1.34-5.42,1.8-2.01.5-2.41,1.48-1.32,3.17,1.42,2.2,2.62,4.54,3.98,6.77,1.46,2.39,2.98,4.74,4.5,7.1,1.68,2.62,3.34,5.26,5.1,7.82,3.34,4.87,6.69,9.73,10.14,14.52,3.58,4.98,7.26,9.91,10.96,14.81,1.4,1.86,2.93,3.63,4.49,5.36,4.82,5.34,9.53,10.8,14.58,15.92,5.75,5.85,11.81,11.4,17.76,17.05,2.22,2.1,4.58,4.06,6.77,6.18,3.97,3.85,8.17,7.36,12.94,10.2,1.16.69,1.97,1.94,3.09,2.73,3.42,2.42,6.88,4.77,10.36,7.09,4.63,3.09,9.24,6.22,13.98,9.14,3.31,2.03,6.85,3.7,10.25,5.58,3.12,1.73,6.14,3.66,9.33,5.25,3.04,1.52,6.23,2.73,9.37,4.06,3.19,1.35,6.38,2.68,9.58,4,2.26.93,4.54,1.82,6.8,2.75,1.72.71,3.37,1.61,5.13,2.15,7.5,2.3,14.96,4.84,22.58,6.64,8.15,1.93,16.48,3.11,24.73,4.65,3.24.6,6.46,1.37,9.72,1.87,3.01.46,6.06.81,9.1.96,5.03.24,10.08.3,15.11.41,5.74.13,11.49.38,17.23.32,6.52-.07,13.04-.38,19.55-.66,4.01-.17,8.03-.33,12.02-.78,3.09-.35,6.1-1.31,9.18-1.72,4.63-.62,9.33-.81,13.94-1.53,3.66-.57,7.23-1.71,10.85-2.51,7.19-1.59,14.45-2.9,21.58-4.72,7.9-2.02,15.76-4.24,23.49-6.82,9.1-3.03,17.64-7.45,26.14-11.86,3.18-1.65,6.14-3.71,9.24-5.5,3.88-2.24,7.87-4.32,11.71-6.62,2.2-1.32,4.22-2.95,6.31-4.45,3.97-2.86,7.74-6.06,11.96-8.49,4.15-2.4,7.56-5.63,11.27-8.52,3.27-2.54,6.53-5.1,9.62-7.85,4.43-3.94,8.75-8.02,13.03-12.12,2.94-2.81,5.82-5.7,8.58-8.68,4.55-4.93,9.12-9.84,13.41-14.98,4.37-5.23,8.46-10.7,12.57-16.15,2.34-3.1,4.52-6.31,6.68-9.54,2.19-3.26,4.35-6.55,6.38-9.92,2.4-3.99,4.72-8.03,6.91-12.13,1.55-2.91,2.81-5.97,4.23-8.95.33-.69.86-1.29,1.22-1.97.51-.98,1-1.98,1.41-3.01.37-.93.38-2.1.96-2.84,1.36-1.74,2.26-3.6,2.77-5.75.29-1.24,1.11-2.37,1.69-3.54.29-.59.65-1.16.86-1.78,1.39-3.98,2.73-7.97,4.13-11.95.36-1.01,1-1.92,1.31-2.94.58-1.88.95-3.82,1.54-5.69.74-2.39,1.69-4.71,2.39-7.11.47-1.6.56-3.3.97-4.92.47-1.85,1.23-3.63,1.62-5.49.8-3.86,1.4-7.77,2.17-11.64.29-1.45.94-2.83,1.21-4.28.51-2.75.94-5.53,1.27-8.3.58-4.78.79-9.59,2.41-14.23.71-2.03.6-4.38.65-6.59.18-7.08.23-14.16.4-21.24.15-5.92.61-11.84.57-17.76-.04-5.93-.6-11.85-.83-17.77-.14-3.54-.09-7.08-.12-10.63-.03-2.91-1.12-3.56-3.87-2.52-1.32.5-2.78.62-4.15,1-1.18.33-2.33.78-3.49,1.19-1.57.56-3.12,1.2-4.71,1.69-2.61.82-5.24,1.58-7.88,2.32-1.72.48-3.47.87-5.21,1.31-.93.24-1.96.32-2.76.78-2.87,1.67-6,2.27-9.22,2.8-1.71.28-3.24,1.66-4.95,1.96-4.32.76-8.26,2.63-12.41,3.87-2.4.71-4.79,1.42-7.2,2.1-1.89.53-3.82.96-5.7,1.53-1.25.38-2.43.98-3.69,1.36-2.16.65-4.32,1.41-6.54,1.72-1.84.26-2.48-.56-2.58-2.4-.04-.66-.03-1.32-.01-1.98.07-2.47.45-2.87,2.85-3.6,7.73-2.36,15.45-4.81,23.18-7.16,5.1-1.55,10.25-2.97,15.35-4.52,5.21-1.59,10.39-3.31,15.59-4.93,4.7-1.46,9.42-2.84,14.11-4.31,1.88-.59,3.7-1.37,5.56-2.03,1.41-.5,2.83-.96,4.25-1.43,1.44-.49,2-1.1,1.51-2.92-.76-2.79-1.21-5.76-1.22-8.65-.02-4.76-1.1-9.25-2.69-13.65-.87-2.4-.2-3.83,2.26-4.49.4-.11.82-.17,1.24-.22,4.31-.57,5.44.47,5.66,4.78.2,4,.39,7.96,1.87,11.84.94,2.47.92,5.3,1.35,7.97.36,2.28.93,2.62,3.17,1.92,7.78-2.43,15.56-4.85,23.34-7.29,5.32-1.67,10.62-3.38,15.93-5.06,6.62-2.09,13.25-4.17,19.88-6.26,6.46-2.03,12.91-4.11,19.39-6.08,5.16-1.57,10.38-2.94,15.54-4.52,5.27-1.61,10.48-3.43,15.75-5.06,5.1-1.57,10.24-3.02,15.36-4.51.29-.08.65-.06.86-.23,2.18-1.65,4.07-.31,5.87.68,1.89,1.04,1.12,2.99,1.08,4.58-.03,1.42-1.37.93-2.23,1.17-1.88.53-3.72,1.18-5.57,1.8-1.36.46-2.68,1.22-4.07,1.37-3.03.32-5.79,1.31-8.47,2.66-.27.13-.55.27-.84.31-3.61.4-6.8,2.23-10.21,3.12-3.88,1.02-7.61,2.47-11.47,3.45-3.14.79-6.27,1.37-9.17,2.93-1.16.63-2.67.59-3.99.95-1.31.36-2.56.91-3.86,1.29-2.35.68-4.72,1.29-7.08,1.92-.86.23-1.85.25-2.57.7-2.45,1.55-5.1,2.35-7.96,2.62-.71.07-1.49.18-2.08.53-3.01,1.79-6.35,2.44-9.74,3.03-1.03.18-1.97.83-2.98,1.16-1.93.61-3.89,1.12-5.82,1.72-1.35.42-2.66.96-4.01,1.37-2.1.65-4.22,1.22-6.33,1.85-1.23.37-2.43.85-3.67,1.23-2.28.69-4.57,1.32-6.85,2.01-1.48.45-2.94.96-4.41,1.41-2.05.63-4.08,1.63-6.16,1.76-3.86.25-6.75,3.84-5.42,7.83,1.05,3.14,1.52,6.58,1.6,9.9.29,12.12.34,24.25.43,36.37.05,7.57-.51,15.13-1.97,22.55-.9,4.58-1.01,9.15-1.33,13.74-.22,3.2-1.12,6.35-1.75,9.52-.45,2.29-1.27,4.56-1.34,6.85-.13,4.12-1.28,7.9-2.81,11.64-.18.44-.48.92-.44,1.35.42,3.95-1.35,7.37-2.53,10.93-.24.74-.51,1.5-.58,2.26-.27,3.22-1.22,6.21-2.78,9.04-.39.71-.5,1.58-.7,2.39-.32,1.28-.52,2.6-.95,3.84-.98,2.82-1.98,5.63-3.13,8.38-1.65,3.96-3.42,7.86-5.16,11.79-1.2,2.72-2.35,5.46-3.64,8.14-1.87,3.86-3.85,7.68-5.8,11.5-1.28,2.5-2.51,5.03-3.94,7.44-2.3,3.87-3.9,8.16-6.87,11.66-.83.98-1.28,2.27-1.98,3.37-2.45,3.78-4.91,7.57-7.44,11.3-.9,1.32-2.03,2.49-3.03,3.75-3.96,4.96-7.84,9.98-11.88,14.86-4.11,4.97-8.29,9.89-12.62,14.68-2.36,2.61-5.09,4.89-7.62,7.36-1.62,1.58-3.13,3.28-4.76,4.85-1.41,1.36-2.91,2.64-4.39,3.92-5.17,4.47-10.25,9.05-15.54,13.37-4.26,3.47-8.74,6.67-13.18,9.91-4.18,3.06-8.36,6.13-12.68,8.99-2.77,1.84-5.81,3.26-8.68,4.95-2.37,1.39-4.66,2.91-7,4.35-.81.5-1.66.94-2.49,1.41-1.09.61-2.17,1.24-3.27,1.82-1.1.58-2.23,1.11-3.36,1.65-.21.1-.48.11-.68.23-3.24,1.76-6.42,3.63-9.71,5.27-3.18,1.58-6.47,2.93-9.72,4.38-1.29.58-2.54,1.27-3.87,1.73-1.85.64-3.76,1.1-5.64,1.67-1.41.42-2.8.9-4.2,1.33-1.94.6-3.89,1.18-5.83,1.76-2.16.64-4.32,1.31-6.5,1.86-2.25.58-4.55.97-6.8,1.56-2.36.63-4.65,1.5-7.02,2.08-2.08.51-4.23.75-6.35,1.14-1.35.25-2.82.29-4,.88-3.36,1.7-6.94,2.09-10.61,2.42-2.66.24-5.27,1.04-7.91,1.5-2.77.49-5.54,1.03-8.34,1.28-4.18.37-8.39.37-12.56.8-5.8.6-11.55,2.53-17.4,2.76-7.71.3-15.45.06-23.19.06-4.88,0-9.86-.3-14.76-.63-3.04-.21-6.07-.55-9.08-1.03-.38-.06-.76-.13-1.14-.22Z"/>
  <path class="st1" d="M1192.23,414.6c.34.89.79,1.64.9,2.44.46,3.37.46,6.79,2.86,9.66,1.18,1.41.23,3.98-.94,5.52-1.73,2.28-3.05,4.86-4.64,7.25-1.73,2.58-3.53,5.12-5.4,7.6-2.66,3.54-5.42,7.02-8.13,10.52-.29.38-.6.75-.93,1.1-5.15,5.28-10.28,10.58-15.49,15.8-2.29,2.29-4.74,4.41-7.13,6.6-1.49,1.36-2.01,3.12-1.93,5.04.34,8.02-.58,15.96-1.89,23.83-.93,5.6-2.47,11.11-3.69,16.67-1.83,8.33-5.72,15.75-10.16,22.89-4.85,7.79-11.21,13.87-19.73,17.75-3.42,1.56-6.87,2.8-10.48,2.86-4.48.07-9-.1-12.84-3.42-3.12-2.7-5.25-5.77-6.69-9.61-.99-2.65-1.82-5.28-2.39-8.05-.91-4.44.51-8.61,1.38-12.78.43-2.07,1.2-4.2,1.88-6.26.91-2.76,2.55-5.31,4.09-7.82,1.61-2.63,3.43-5.14,5.21-7.67,1.58-2.24,3.09-4.57,4.9-6.62,3.65-4.13,7.44-8.12,11.25-12.11,1.36-1.42,2.87-2.74,4.43-3.94,1.27-.97,1.9-2.16,1.86-3.69-.2-7.49-.43-14.99-.66-22.48-.04-1.26-.03-2.53-.2-3.77-.06-.44-.57-.82-.87-1.23-.36.34-.92.63-1.04,1.04-1.24,4.32-3.64,8.03-5.75,11.94-2.95,5.46-6.47,10.49-10.17,15.39-2.89,3.82-6.49,6.97-10.75,9.43-3.48,2.02-7.02,3.64-10.94,4.37-3.49.65-6.98,1.03-10.32-.85-2.54-1.43-5.4-2.38-7.76-4.04-3.27-2.3-5.87-5.36-7.74-8.97-1.16-2.23-2.3-4.46-3.56-6.63-.16-.27-1.16-.41-1.43-.19-.83.67-1.72,1.43-2.17,2.36-2.66,5.46-6.34,10.28-9.47,15.44-3.43,5.66-7.88,10.46-12.36,15.15-4.82,5.05-10.33,9.39-16.77,12.52-4.73,2.3-9.63,4.06-14.67,5.3-3.37.83-7,.67-10.52.85-1.31.07-2.65-.04-3.94-.26-2.17-.35-4.34-.75-6.46-1.32-1.79-.48-3.61-1.03-5.23-1.9-3.08-1.65-6.09-3.46-9.01-5.39-1.68-1.11-3.27-2.45-4.62-3.94-1.87-2.08-3.47-4.39-5.19-6.61-.26-.33-.51-.67-.81-.96-1.13-1.05-1.77-.89-2.04.6-.3,1.68-.96,3.04-2.05,4.45-1.81,2.34-3.12,5.06-4.63,7.63-1.85,3.14-3.64,6.32-5.54,9.42-2.66,4.33-5.13,8.82-8.2,12.84-2.33,3.05-5.36,5.61-8.3,8.13-3.01,2.59-6.76,3.89-10.58,4.74-3.28.73-6.64,1-9.83-.69-.89-.47-1.89-.74-2.83-1.11-.44-.17-.99-.25-1.3-.56-3.37-3.41-7.13-6.42-9.01-11.16-1.39-3.52-3.59-6.71-5.41-10.06-.2-.36-.27-.78-.42-1.17-.68-1.82-1.35-3.65-2.09-5.45-.1-.24-.6-.49-.85-.43-.25.06-.55.47-.59.76-.13.83-.24,1.68-.18,2.51.22,3.04-1.71,5.39-2.59,8.06-1.34,4.07-2.99,8.08-4.87,11.94-3.55,7.28-7.41,14.41-12.76,20.57-1.39,1.6-3.25,2.85-5.05,4.02-5.65,3.67-11.63,6.44-18.6,6.25-4.65-.13-8.69-2.21-12.74-4.12-3.99-1.89-7.3-4.84-10.11-8.18-2.28-2.72-4.01-5.89-6.03-8.83-.38-.55-.95-1.2-1.54-1.32-.39-.08-1.13.59-1.41,1.09-2.06,3.78-3.96,7.65-6.1,11.38-1.15,2-2.73,3.76-4.03,5.68-3.05,4.5-5.82,9.22-9.14,13.51-3.56,4.59-7.52,8.9-12.86,11.6-2.77,1.4-5.55,2.8-8.32,4.19-4.3,2.16-8.83,1.99-13.39,1.23-1.03-.17-2-.78-2.98-1.23-.44-.2-.81-.63-1.25-.7-3.45-.53-5.85-2.91-8.37-4.93-3.34-2.69-5.69-6.23-7.86-9.95-2.95-5.06-5.08-10.47-6.45-16.08-1.46-5.98-2.27-12.13-3.12-18.24-.76-5.44-1.19-10.92-1.77-16.39-.03-.24-.06-.48-.06-.72-.09-6.84-.21-13.67-.24-20.51,0-1.36-.6-1.85-1.75-1.47-1.9.62-3.81,1.3-5.59,2.19-1.43.71-2.41.58-2.67-1.01-.75-4.54-1.35-9.11-2.02-13.67-.14-.94-.21-1.92-.53-2.8-1.41-3.95.11-5.85,3.67-7.18,1.34-.5,2.79-.73,4.18-1.08,2.9-.74,4.2-2.38,4.2-5.43,0-13.39,0-26.79,0-40.18,0-4.17.49-4.48,4.32-6.16,3.02-1.32,5.74-3.29,8.63-4.93,2.52-1.43,5.08-2.81,7.63-4.19.52-.28,1.12-.43,1.64-.72,2.08-1.15,4.17-2.29,6.21-3.52,1.24-.74,2.31-1.83,3.62-2.4,1.69-.73,2.76.12,2.91,1.97.01.18.01.36.01.54.13,9.06.24,18.12.39,27.19.1,6,.24,12,.38,18,.01.59.12,1.2.29,1.77.58,1.88,2.01,2.38,3.36.97,1.18-1.22,2.55-1.61,4.08-2.02,1.48-.39,2.82-1.28,4.29-1.78,1.98-.68,3.98-1.3,6.02-1.73,1.28-.27,1.34.87,1.38,1.8.11,2.82.09,5.64.37,8.44.3,3.09.84,6.16,1.35,9.23.26,1.58-.19,2.72-1.67,3.37-2.8,1.23-5.59,2.47-8.42,3.63-2.99,1.23-6.06,2.26-8.98,3.62-.79.37-1.65,1.59-1.67,2.44-.09,4.38.05,8.76.17,13.14.11,3.94.44,7.88.43,11.83-.03,8.24.77,16.41,2.02,24.54.45,2.9.77,5.83,1.48,8.67.99,3.92,3.21,7.19,6.35,9.73.82.66,2.1.75,3.17,1.11,1.26.42,2.51.94,3.8,1.21.72.15,1.57.03,2.29-.21,4.42-1.43,8.13-3.87,10.99-7.6,1.95-2.54,4.08-4.95,6.12-7.42.42-.51.85-1.03,1.14-1.61,1.35-2.64,2.61-5.33,3.99-7.96,1.01-1.94,2.38-3.73,3.16-5.75.57-1.49.8-3.29.57-4.87-1.36-9.55-.94-19.05.82-28.48.57-3.07,1.72-6.04,2.62-9.05.78-2.6,1.49-5.23,2.4-7.78.53-1.47,1.41-2.81,2.14-4.2.14-.26.35-.5.46-.77,1.08-2.61,1.97-5.32,3.26-7.82,1.48-2.86,3.19-5.63,5.05-8.26,2.45-3.46,5.06-6.83,7.78-10.09,2.4-2.88,4.72-5.84,8.22-7.62,1.58-.8,2.83-2.23,4.33-3.2,1.53-.99,3.27-1.64,4.78-2.66,3.86-2.61,8.33-3.57,12.67-4.86,3.74-1.1,7.41-1.16,10.98.78,2.67,1.45,5.45,2.69,8.1,4.17,1.01.56,1.88,1.46,2.66,2.34,1.26,1.42,2.27,1.43,3.57.04,5.1-5.47,10.23-10.93,15.37-16.37,1.56-1.65,3.12-3.35,4.87-4.79,2.17-1.79,4.52-3.35,7.57-3.25,1.28.04,1.87.64,1.9,1.87.01.48.02.96.02,1.44.01,14-.17,27.99.1,41.98.16,8.02.95,16.03,1.64,24.03.46,5.31,1.05,10.63,1.97,15.88.69,3.97,2.33,7.73,5.41,10.5,3.77,3.39,9.24,1.89,12.39-1.42,3.45-3.62,5.98-7.86,8.16-12.36,1.33-2.76,3.15-5.29,4.73-7.93.24-.4.35-.88.57-1.3.68-1.32,1.46-2.59,2.05-3.95.5-1.17,1.19-2.47,1.08-3.65-.28-3.07-.96-6.11-1.47-9.17-.09-.53-.22-1.07-.2-1.6.21-5.21.39-10.42.71-15.62.09-1.53.62-3.03.94-4.55.64-3.04,1.15-6.11,1.95-9.11.78-2.91,1.8-5.76,2.8-8.6.84-2.4,1.66-4.82,2.75-7.11,1.47-3.09,3.19-6.06,4.82-9.08.7-1.3,1.38-2.63,2.14-3.89,3.51-5.78,7.74-10.97,13.05-15.16,2.13-1.69,4.61-2.96,7.01-4.29,4.66-2.58,9.58-4.55,14.71-5.99.74-.21,1.52-.49,2.27-.48,4.08.08,8.15.23,12.23.37.35.01.75.04,1.05.2,4.66,2.52,9.59,4.73,12.51,9.47,1.27,2.07,1.89,4.55,3.21,6.58,1.24,1.9,1.15,3.84,1.1,5.86-.01.53-.07,1.16-.36,1.55-1.59,2.09-3.15,4.22-4.93,6.14-2.11,2.27-4.43,4.36-6.67,6.5-2.34,2.24-4.67,4.5-7.08,6.66-.73.66-1.69,1.15-2.63,1.48-1.99.69-3.55-.44-3.89-2.51-.38-2.28-.95-4.53-1.34-6.8-.43-2.47-.57-5.01-1.17-7.43-1.06-4.28-3.48-7.69-7.13-10.24-1.83-1.28-3.71-1.53-5.8-.86-5.89,1.89-9.27,6.07-11.63,11.65-2.93,6.92-3.57,14.18-3.82,21.46-.15,4.33.76,8.7,1.16,13.06.53,5.68,2.58,10.97,4.5,16.24,1.18,3.25,2.71,6.49,5.28,9.07,2.6,2.61,4.72,5.8,7.62,7.98,2.95,2.21,6.2,4.14,10.02,5.03,6.41,1.49,12.55.64,18.53-1.56,3.71-1.37,6.97-3.69,9.75-6.55,2.58-2.65,5.19-5.29,7.52-8.15,2.1-2.57,3.89-5.4,5.71-8.18,1.93-2.94,4.01-5.81,5.51-8.97,1.49-3.13,3.21-6.1,2.46-10.16-1.14-6.15-1.67-12.5-1.65-18.76.03-8.5.82-16.99,1.28-25.49.15-2.81.22-5.63.43-8.44.24-3.22.61-6.42.9-9.64.07-.77.27-1.61.08-2.32-.48-1.77.18-2.89,1.69-3.69,1.95-1.03,3.89-2.05,5.82-3.11,3.02-1.66,6.01-3.37,9.05-4.99.99-.53,2.18-.71,3.16-1.26,3.17-1.79,6.26-3.75,9.45-5.5,2.17-1.19,4.44-2.25,6.73-3.19,1.37-.56,2.22.42,2.06,1.9-.64,6-1.26,11.99-1.8,18-.48,5.25-.85,10.51-1.28,15.77-.53,6.51-1.28,13-1.57,19.52-.27,6.15-.44,12.35.06,18.47.49,6,1.98,11.92,2.83,17.9.49,3.48,2.31,6.31,4.1,9.11,2.33,3.63,9.34,3.69,12.35.34,1.72-1.91,3.78-3.62,5.09-5.78,1.64-2.7,4.35-4.86,4.55-8.36.03-.46.21-.95.43-1.36,3.23-6.08,4.99-12.6,5.91-19.4.43-3.14,1.16-6.24,1.69-9.37.13-.79.02-1.63.04-2.45.02-.71-.11-1.49.13-2.13,1.38-3.65.96-7.46,1.05-11.21.23-9.72.4-19.43.58-29.15.05-2.88,0-5.77.08-8.65.05-1.92.16-3.84.43-5.74.31-2.21,1.77-3.58,3.73-4.51,3.18-1.5,6.35-3.03,9.5-4.58,1.63-.8,3.24-1.65,4.8-2.58,2.93-1.74,5.81-3.57,8.74-5.32.66-.39,1.49-.5,2.16-.87,1.08-.6,2.06-1.37,3.15-1.95.74-.4,1.72-.99,2.35-.77.57.19,1.12,1.36,1.13,2.1.08,7.98.09,15.96.04,23.94-.1,16.57-.23,33.14-.36,49.71-.09,10.38-.24,20.77-.29,31.15-.02,2.88.17,5.75.34,8.63.03.51.47,1,.72,1.49.49-.28,1.17-.44,1.45-.86,3.82-5.66,9.24-9.87,13.61-15.02,3.75-4.42,7.2-9.1,10.54-13.84,2.26-3.2,4.16-6.66,6.14-10.04,1.26-2.14,2.24-4.46,3.63-6.52,1.17-1.73,2.73-3.19,4.38-5.07ZM825.56,512.36c.6,6.44.79,13.07,1.94,19.53.9,5.09,2,10.42,6.29,14.16.58.51,1.15,1.05,1.68,1.62,2.22,2.39,5.17,3.48,8.23,3.8,1.73.18,3.76-.39,5.33-1.22,4.81-2.55,8.55-6.22,10.59-11.41.24-.6.69-1.11.97-1.7.69-1.42,1.38-2.85,1.98-4.3.29-.71.4-1.5.59-2.25.78-3.11,1.84-6.19,2.29-9.35.72-5.09,1.34-10.24,1.47-15.38.18-6.9.04-13.82-.33-20.71-.19-3.5-1.06-6.98-1.85-10.41-1.12-4.87-3.04-9.39-7.05-12.64-1.33-1.07-2.83-2.35-4.41-2.6-3.64-.59-7.31-.39-10.54,1.9-3.83,2.72-6.9,6.09-9.16,10.2-3.46,6.3-5.09,13.23-6.19,20.2-1.06,6.73-1.25,13.59-1.83,20.56ZM1118.77,506.54c-1.51,1.36-2.8,2.32-3.83,3.51-4.56,5.21-9.64,9.87-13.24,16.04-2.89,4.95-5.67,9.8-6.31,15.44-.66,5.9-.81,11.88,4.37,16.43,2.06,1.81,6.26,2.09,8.49.11.94-.83,2-1.58,2.79-2.53,1.53-1.83,3.2-3.63,4.26-5.73,1.14-2.25,1.63-4.83,2.41-7.27.04-.11.05-.24.06-.35.49-5.36,1.2-10.71,1.42-16.09.25-5.98.05-11.97.03-17.96,0-.33-.18-.65-.45-1.61Z"/>
  <path class="st1" d="M563.6,635.83c.96-4.49,1.92-8.97,2.88-13.46.65-3.03,1.24-6.08,1.95-9.1.35-1.49.95-2.92,1.38-4.39.32-1.09.52-2.21.84-3.3.3-1.03.46-2.19,1.06-3.01,1.21-1.67,7.3-1.06,8.39.77,2.07,3.48,4.54,6.8,6.01,10.52,1.23,3.1,2.83,5.93,4.5,8.71,1.74,2.89,3.85,5.61,6.09,8.14,1.88,2.13,4.12,3.96,6.31,5.8.75.63,1.84.83,2.74,1.29,7.45,3.78,15.23,3.66,22.92,1.3,3.07-.94,6.1-2.29,8.91-4.35,2.91-2.13,5.8-4.21,8.21-6.85,2.01-2.2,3.71-4.68,5.48-7.09.36-.5.32-1.27.59-1.87.52-1.19,1.13-2.35,1.69-3.52.41-.85.99-1.66,1.2-2.55,1.5-6.64,1.63-13.31-.27-19.88-.6-2.08-1.81-4.07-3.12-5.83-1.86-2.49-3.83-4.99-6.18-7-3.62-3.09-7.3-6.17-11.74-8.13-1.91-.84-3.66-2.02-5.51-3-3.38-1.8-6.75-3.62-10.17-5.34-2.72-1.37-5.51-2.61-8.27-3.91-.92-.43-1.86-.83-2.75-1.31-3.62-1.93-7.29-3.78-10.82-5.87-2.66-1.57-5.14-3.46-7.68-5.22-1.6-1.11-3.17-2.28-4.78-3.37-4.32-2.93-7.91-6.6-10.91-10.83-1.93-2.72-3.32-5.83-5.39-8.43-2.93-3.67-3.44-8.23-5.03-12.35-1.19-3.1-1.41-6.69-1.51-10.08-.16-4.97-.05-9.97.39-14.92.25-2.78.44-5.74,2.2-8.2.2-.29.31-.65.43-.99,1.33-3.8,2.5-7.68,4.05-11.39.93-2.22,2.34-4.27,3.76-6.24,1.57-2.16,3.27-4.27,5.15-6.16,2.04-2.07,4.24-4.02,6.58-5.74,2.15-1.59,4.83-2.52,6.8-4.28,1.39-1.24,2.92-1.39,4.41-1.98,2.94-1.17,5.85-2.42,8.8-3.54,6.32-2.4,12.96-3.28,19.62-4.17,4.32-.57,8.34.5,12.46,1.17,1.83.3,3.7.4,5.52.74,1.04.19,2.04.61,3.03,1.01,1.58.64,3.16,1.31,4.7,2.05,1.1.53,2.13,1.2,3.19,1.81.57.33,1.11.7,1.69.99,4.44,2.19,5.3,4.46,5.11,8.88-.19,4.37-1.46,8.46-2.9,12.54-1.5,4.27-2.78,8.62-4.13,12.94-.9,2.89-3,4.71-5.35,4.4-.63-.08-1.47-.47-1.76-.97-1.85-3.19-3.41-6.56-5.39-9.67-2.14-3.36-4.48-6.61-7.02-9.68-1.53-1.85-3.45-3.48-5.46-4.8-4.6-3.02-9.62-5.15-15.15-5.75-5.58-.61-10.56,1.26-15.55,3.6-5.83,2.74-9.53,7.36-11.87,12.95-2.72,6.5-3.07,13.21-.71,20.18,2.54,7.5,7.08,13.2,13.29,17.78,1.56,1.15,3.34,2.01,4.98,3.06.54.35.99.85,1.47,1.29.35.33.6.8,1,1.01,2.78,1.44,5.61,2.79,8.38,4.26,3.15,1.67,6.25,3.44,9.37,5.16.21.12.43.21.65.31,3.33,1.48,6.7,2.86,9.96,4.47,3.03,1.5,5.94,3.26,8.91,4.9,1.83,1.01,3.57,2.34,5.52,2.95,3.25,1,5.54,3.42,8.34,5.07,3.83,2.26,7.55,4.8,10.46,8.3.99,1.19,2.33,2.1,3.23,3.34,2.39,3.27,4.81,6.55,6.91,10.01,4.26,7.02,6.03,14.83,5.88,22.93-.1,5.42-.61,10.92-1.8,16.19-1,4.44-3.08,8.67-4.99,12.85-3.3,7.23-7.69,13.83-13.24,19.52-3.66,3.75-7.57,7.37-11.85,10.37-4.19,2.94-8.88,5.21-13.53,7.4-3.99,1.87-8.17,3.44-12.4,4.71-3.37,1.01-6.93,1.38-10.42,2.01-2.77.5-5.55,1.33-8.33,1.36-3.5.04-7.05-.37-10.51-.99-3.95-.71-7.92-1.56-11.68-2.92-4.6-1.66-9.28-3.44-13.37-6.05-3.47-2.21-6.67-5.4-5.09-10.58-.26,0-.52,0-.78.01Z"/>
  <path class="st1" d="M1289.74,435.13c-4.04-.89-8.18-1.46-12.08-2.74-5.22-1.72-7.02-5.44-6.47-10.84.3-2.93,1.11-5.57,2.31-8.21.96-2.11,1.27-4.54,2.38-6.55,1.61-2.91,2.32-6.36,5.22-8.57,1.58-1.2,4.27-1.59,5.78-.15,1.68,1.6,3.31,3.25,4.84,4.99,1.69,1.92,3.14,4.06,4.89,5.91,3.74,3.94,8.2,6.35,13.69,4.27,2.31-.87,4.46-2.6,6.2-4.4,2.31-2.39,4.38-5.09,6.13-7.92,1.13-1.83,1.72-4.08,2.17-6.22.64-3.04,1.67-6.13.65-9.28-.8-2.48-1.56-4.99-2.64-7.35-.71-1.54-1.85-2.93-2.99-4.21-2.77-3.12-5.49-6.32-8.55-9.15-2.79-2.58-6.07-4.62-8.98-7.08-2.51-2.12-4.81-4.5-7.19-6.78-.86-.82-1.75-1.63-2.53-2.53-1.04-1.2-1.95-2.5-2.98-3.7-.43-.5-1.01-1.09-1.58-1.15-.34-.04-.99.79-1.16,1.33-1.21,3.93-2.25,7.92-3.51,11.83-1.46,4.56-3.08,9.07-4.65,13.59-1.58,4.57-3.1,9.17-4.79,13.7-1.51,4.03-3.24,7.97-4.83,11.96-.42,1.05-.63,2.18-1.08,3.22-1.06,2.46-2.11,4.95-3.36,7.32-1.1,2.1-3.07,1.98-4.33-.04-1.23-1.98-2.13-4.02-1.93-6.41.03-.35.05-.84-.15-1.05-2.5-2.66-.12-4.8.72-7.09.95-2.59,1.86-5.19,2.93-7.73,1.08-2.58,2.44-5.04,3.45-7.64,1.47-3.8,2.74-7.69,4.08-11.54.72-2.07,1.44-4.13,2.14-6.2.88-2.6,1.84-5.19,2.59-7.83.65-2.29,1.07-4.65,1.57-6.98.67-3.08,1.55-6.15,1.92-9.27.74-6.3,2.21-12.53,1.76-18.96-.07-.93.49-2.19,1.19-2.82,1.45-1.3,3.15-2.36,4.83-3.38,3.03-1.85,6.09-3.64,9.18-5.38,1.08-.61,2.34-.88,3.44-1.45,3.27-1.69,6.5-3.46,9.75-5.2,1.29-.69,2.43-.35,2.78,1.09.36,1.47.49,3.02.54,4.55.2,6.18.75,12.32,4.98,17.24,3.02,3.52,6.33,6.81,9.76,9.93,4.65,4.23,9.51,8.27,13.12,13.47,2.46,3.54,4.1,7.53,5.27,11.74,2.53,9.05,1.56,17.88-.9,26.78-1.62,5.87-4.34,11.23-6.69,16.78-2,4.73-5.06,8.78-7.72,13.03-2.5,3.99-6.22,7.28-9.67,10.6-4.46,4.28-9.87,7.28-15.52,9.63-3.1,1.29-6.64,1.51-10,2.14-1.29.25-2.62.32-3.92.47-.03.08-.05.16-.08.23Z"/>
  <path class="st1" d="M951.72,231.89c7.12,0,14.39-.36,21.56.05,3.65.21,7.29.62,10.87,1.39,1.66.36,3.25.93,4.89,1.33,1.72.42,3.57.42,5.32.57.69.06,1.37.13,2.05.23,3.11.47,6.2,1.12,9.31,1.66,3.84.67,7.68,1.31,11.52,1.97.7.12,1.4.3,2.09.47,3.72.93,7.44,1.82,11.14,2.82,2.02.55,3.99,1.3,5.99,1.94,7.87,2.51,15.8,4.87,23.6,7.59,4.61,1.61,9.03,3.79,13.53,5.73,2.68,1.16,5.41,2.23,8.02,3.53,5.9,2.94,11.88,5.78,17.59,9.06,8.83,5.06,17.52,10.37,26.15,15.76,4.01,2.5,7.77,5.39,11.6,8.17,1.34.97,2.64,2.05,3.74,3.27.34.38.18,1.55-.16,2.1-.51.84-1.43,1.43-2.1,2.2-1.14,1.3-2.57,1.63-3.97.6-3.14-2.3-6.21-4.7-9.3-7.06-.38-.29-.74-.62-1.14-.87-2.32-1.46-4.66-2.9-6.98-4.36-4.29-2.7-8.52-5.51-12.88-8.09-2.97-1.76-6.12-3.22-9.19-4.81-.05-.03-.12-.03-.17-.06-2.98-1.73-5.94-3.47-8.94-5.18-.77-.44-1.63-.74-2.43-1.13-1.5-.73-2.98-1.48-4.47-2.23-.1-.05-.18-.17-.28-.22-3.11-1.34-6.22-2.66-9.33-4-1.53-.66-3.05-1.35-4.57-2.04-.27-.12-.48-.38-.75-.48-3.69-1.36-7.39-2.71-11.08-4.05-1.85-.67-3.72-1.32-5.58-1.98-1.02-.36-2.02-.74-3.05-1.06-2.62-.83-5.25-1.65-7.89-2.46-1.2-.37-2.4-.72-3.6-1.06-2.69-.76-5.36-1.62-8.09-2.22-2.92-.64-5.89-1.03-8.84-1.53-.36-.06-.76-.01-1.06-.17-5.28-2.84-11.23-2.1-16.84-3.18-2.53-.48-5-1.24-7.52-1.79-1.93-.42-3.88-.88-5.84-.98-4.85-.25-9.72-.24-14.57-.44-3.59-.15-7.17-.49-10.76-.7-1.07-.06-2.16.01-3.24.01-3.15,0-6.31-.05-9.46.02-4.56.1-9.11.25-13.67.45-2.99.13-5.98.38-8.97.61-4.48.35-9.16.02-13.38,1.26-5.9,1.73-11.93,1.79-17.86,2.78-2.87.48-5.59,1.89-8.46,2.33-3.86.6-7.66,1.17-11.26,2.85-1.37.63-3.05.55-4.56.91-1.21.29-2.38.75-3.56,1.15-2.02.68-4.04,1.38-6.07,2.06-1.07.36-2.16.66-3.19,1.1-1.32.56-2.53,1.57-3.89,1.77-2.85.42-5.34,1.64-7.94,2.71-3.96,1.62-8.13,2.75-12.08,4.4-3.39,1.41-6.6,3.27-9.88,4.93-.16.08-.3.2-.47.27-2.8,1.3-5.66,2.49-8.4,3.91-3.07,1.59-6.02,3.4-9.04,5.08-.99.55-2.04.98-3.05,1.47-.59.29-1.19.56-1.73.91-2.81,1.8-5.63,3.6-8.4,5.46-1.99,1.33-3.94,2.72-5.87,4.15-4.13,3.06-8.23,6.16-12.35,9.23-2.1,1.57-4.33,3-6.32,4.7-3.51,2.99-6.96,6.06-10.29,9.25-6.32,6.07-12.6,12.19-18.77,18.42-3.63,3.66-7.13,7.46-10.48,11.38-4.59,5.36-9.05,10.84-13.42,16.38-2.43,3.07-4.52,6.41-6.84,9.57-1.8,2.45-3.79,4.76-5.57,7.23-1.33,1.84-2.42,3.85-3.67,5.75-1.73,2.63-3.52,5.22-5.24,7.86-1.36,2.1-2.7,4.22-3.97,6.38-2.37,4.01-4.77,8-6.99,12.09-2.72,5.04-5.1,10.26-7.94,15.22-1.21,2.12-2.11,4.22-2.62,6.58-.3,1.41-2.5,1.96-4.69,1.34-2.14-.61-4.26-2.66-4.01-3.89.03-.17.1-.39.22-.48,3.22-2.35,3.03-6.61,5.45-9.56,1.96-2.39,2.78-5.71,4.15-8.59.38-.8.91-1.54,1.41-2.29.43-.65.99-1.22,1.36-1.9,2.18-3.91,4.31-7.85,6.5-11.76.64-1.14,1.45-2.19,2.13-3.32,2.72-4.46,5.39-8.96,8.16-13.4.88-1.41,1.96-2.69,3-3.99,2.94-3.67,4.86-8.04,8.15-11.51,2.07-2.19,3.5-4.96,5.29-7.42.91-1.25,1.98-2.39,2.99-3.58,5.08-5.99,10.15-11.99,15.26-17.95,2.52-2.94,5.02-5.92,7.74-8.68,3.85-3.93,7.89-7.68,11.86-11.48,2.76-2.64,5.5-5.3,8.34-7.85,1.18-1.05,2.66-1.75,3.9-2.75,3.58-2.9,7.02-5.98,10.67-8.8,4.48-3.45,9.01-6.84,13.7-9.98,5.76-3.86,11.61-7.61,17.6-11.08,4.9-2.84,10.08-5.2,15.14-7.78,3.31-1.68,6.56-3.49,9.94-5.02,3.16-1.44,6.43-2.63,9.68-3.86,5.42-2.06,10.84-4.16,16.31-6.08,4.29-1.51,8.67-2.78,13.01-4.16,1.43-.45,2.84-.96,4.29-1.33,4.53-1.14,9.05-2.31,13.61-3.3,8.02-1.75,16.06-3.39,24.11-5.02,1.16-.23,2.4-.05,3.59-.2,2.78-.35,5.56-.78,8.33-1.21,1.62-.25,3.31-.12,4.98-.29,1.94-.2,3.85-.55,5.79-.71,2.16-.19,4.34-.16,6.51-.35,1.51-.13,3.02-.38,4.52-.62,1.92-.31,3.3-.23,5.17-.07,2.36.21,4.82.01,7.19.01Z"/>
  <path class="st1" d="M949.57,665.86c.53,1.93,1.05,3.87,1.58,5.8.91,3.35,1.74,6.73,2.74,10.05.6,2,1.58,3.89,2.17,5.89,1.54,5.22,2.83,10.51,4.46,15.69,1.89,6,3.93,11.95,6.1,17.85,1.26,3.42,3.27,3.78,6.26,1.81,2.54-1.68,5.5-1.57,8.34-.91.49.11,1.01,1.42.99,2.17-.02,1.4-.5,2.78-2.12,3.19-2.04.51-4.13.82-6.14,1.42-5.09,1.52-10.15,3.13-15.2,4.76-2.5.81-4.91,2.1-7.46,2.5-1.27.2-3.12-.83-4.08-1.87-1.02-1.11-.15-2.77,1.8-3.58,2.75-1.15,5.6-2.09,8.42-3.04,1.8-.61,2.41-1.83,1.86-3.71-.68-2.33-1.23-4.69-1.89-7.03-.93-3.27-1.94-6.51-2.87-9.78-1.45-5.12-2.82-10.27-4.3-15.38-.68-2.35-1.51-4.65-2.32-6.96-.82-2.35-1.77-4.65-2.54-7.01-.5-1.52-.7-3.14-1.2-4.66-.91-2.77-1.92-5.52-2.95-8.25-.83-2.2-3.26-3.32-5.43-2.48-1.84.71-3.6,1.66-5.47,2.28-.68.23-1.61-.06-2.36-.31-.65-.21-1.18-.78-1.83-1.06-1.32-.57-1.43-1.5-.57-2.4,1.9-1.99,3.8-3.62,6.98-3.82,3.02-.19,6.05-1.41,8.9-2.59,3.24-1.34,5.84-1.04,8.35,1.38,1.45,1.4,3.1,2.58,4.63,3.88,1.72,1.47,3.4,2.98,5.12,4.46,3.63,3.13,7.29,6.23,10.9,9.39,3.29,2.87,6.49,5.83,9.79,8.68,4.79,4.15,9.71,8.16,14.43,12.39,3.74,3.35,8.37,5.67,11.36,9.87.2.29.49.58.8.7.46.18.98.2,1.47.29.07-.46.3-.96.19-1.36-1.13-3.84-2.34-7.66-3.49-11.49-.63-2.1-1.21-4.21-1.81-6.32-1.45-5.05-2.87-10.1-4.39-15.13-.45-1.48-1.28-2.84-1.74-4.31-1.63-5.24-3.15-10.52-4.76-15.77-1.02-3.35-3.39-4.61-6.64-3.48-1.58.55-3.11,1.24-4.63,1.96-1.45.68-3.57.57-4.2-.8-.56-1.23-.35-2.84-.38-4.28,0-.2.5-.49.81-.61,4.09-1.5,8.04-3.41,12.54-3.65,1.68-.09,3.33-.9,4.97-1.44,2.38-.79,4.75-1.61,7.11-2.46.78-.28,1.54-.66,2.23-1.11,1.92-1.23,3.51-1.03,5.03.7.31.36.68.68,1.08.94.32.21.8.49,1.07.39.25-.1.48-.69.44-1.02-.17-1.29.71-1.83,1.46-2.65,2.63-2.91,6.35-2.42,9.61-3.36,3.16-.91,6.36-1.67,9.49-2.68,5.58-1.79,11.11-3.73,16.68-5.56,3.86-1.27,7.75-2.46,11.62-3.7,2.8-.9,5.57-1.85,8.38-2.71,1.6-.49,3.22-1.01,4.87-1.18,3.74-.4,5.47,1.26,5.93,4.57.5,3.56,1.59,6.84,2.64,10.19.23.74.29,1.53.52,2.27.65,2.04,1.12,4.18,2.08,6.07,1.14,2.23,1.55,4.51,1.48,6.94-.03,1.17-.1,2.33-1.6,2.64-2.17.44-4.18-.17-4.64-1.66-1.04-3.41-1.95-6.86-2.88-10.3-.8-2.94-1.54-5.89-2.35-8.82-.72-2.6-2.43-3.81-5.15-3.22-3.51.76-6.95,1.84-10.42,2.79-.34.09-.66.31-1,.4-5.03,1.46-10.07,2.87-15.08,4.38-1.87.56-3.79,1.16-5.49,2.09-1.97,1.09-2.28,2.68-1.59,4.8.62,1.87,1.05,3.79,1.66,5.66.7,2.16,1.54,4.27,2.24,6.43.38,1.19.61,2.43.87,3.65.25,1.17.35,2.38.69,3.53.96,3.23,2.38,4.02,5.63,3.09,1.55-.45,3.01-1.16,4.54-1.7,1.35-.48,2.71-1.14,4.11-1.26,2.47-.21,4.47-1.29,6.36-2.7,1.78-1.33,2.05-5.14.4-7.05-1.85-2.12-1.94-4.73-2.14-7.27-.09-1.13.16-2.43,1.88-2.55,2.39-.18,3.89.38,4.31,2.03,1.23,4.73,2.35,9.5,3.57,14.24.36,1.39.92,2.72,1.39,4.08.56,1.61,1.08,3.24,1.69,4.84.77,1.99,1.61,3.95,2.41,5.94.2.49.39,1,.49,1.51.33,1.58.61,3.17.94,4.75.29,1.43.18,2.74-.9,3.85-1.32,1.36-3.25,1.29-4.06-.4-.89-1.86-1.4-3.89-2.1-5.84-1.04-2.89-1.9-5.87-3.21-8.63-.85-1.79-2.57-2.51-4.73-1.84-4.86,1.5-9.78,2.78-14.62,4.31-2.49.79-2.82,2.04-1.67,4.36.5,1.01.9,2.08,1.24,3.16.87,2.79,1.7,5.59,2.51,8.4.4,1.38.6,2.82,1.09,4.16,1.24,3.35,2.5,6.71,3.96,9.96.53,1.17,1.55,1.95,2.96.52.59-.6,1.74-.7,2.66-.94,2.55-.67,5.12-1.22,7.65-1.94,5.29-1.5,10.58-2.99,15.82-4.64,2.78-.88,5.5-2,8.16-3.19.45-.2.64-1.29.71-1.99.29-2.79-1.31-5.13-1.9-7.72-.16-.7-.4-1.38-.48-2.09-.3-2.43-1.33-4.53-2.58-6.62-1.5-2.5-.53-5.88,1.78-7.02,1.39-.68,2.41-.17,3.27,1.14,2.3,3.53,3.19,7.4,3.49,11.54.11,1.53,1.06,3,1.64,4.49.39,1,.81,1.98,1.2,2.98.52,1.33.98,2.69,1.55,4,.7,1.61.92,2.89-.33,4.6-1.47,2.01-3.11,2.86-5.47,3.49-5.65,1.51-11.17,3.53-16.75,5.32-.73.24-1.53.27-2.28.47-2.42.63-4.83,1.28-7.23,1.94-1.5.41-2.99.89-4.49,1.26-2.67.66-5.36,1.23-8.02,1.92-2.09.54-4.17,1.13-6.2,1.86-3.38,1.22-6.75,2.46-10.04,3.9-1.83.8-3.52.47-4.92-.47-.72-.48-1.15-2.07-.99-3.03.29-1.68,1.28-3.06,3.24-3.41,2.29-.41,4.61-.79,6.84-1.44,1.92-.56,2.54-1.78,2.19-3.72-.59-3.24-1.13-6.51-1.92-9.7-.42-1.71-1.45-3.26-2-4.95-1.03-3.11-1.88-6.29-2.88-9.41-1.38-4.31-2.83-8.59-4.24-12.88-.11-.34-.27-.69-.28-1.04-.14-5.05-2.94-9.42-3.69-14.33-.32-2.09-1.23-4.11-2-6.11-.93-2.4-3.11-3.34-5.57-2.48-2.08.73-4.12,1.6-6.22,2.26-.63.2-1.64.13-2.11-.26-1.38-1.14-2.73-1.08-3.92-.04-2.59,2.27-5.67,3.25-8.94,3.94-2.62.55-3.59,1.9-3.67,4.51-.07,2.27.38,4.35,1.43,6.41.81,1.57,1.16,3.38,1.68,5.09.74,2.46,1.46,4.92,2.15,7.39.45,1.61.85,3.24,1.27,4.86.25.98.45,1.98.77,2.94.74,2.2,1.6,4.36,2.31,6.57.86,2.67,1.63,5.37,2.44,8.06.29.97.57,1.95.86,2.92.62,2,1.25,3.99,1.86,5.98.51,1.66.99,3.32,1.5,4.98.73,2.4,1.49,4.8,2.21,7.21.33,1.09.66,2.18.86,3.29.37,2.11-.39,2.88-2.14,4.02-2.73,1.78-4.71.93-7.11-.77-5.13-3.61-9.53-7.98-14.06-12.25-1.97-1.86-4.33-3.3-6.46-5-1.82-1.45-3.62-2.94-5.34-4.52-4.06-3.73-7.98-7.61-12.12-11.26-2.72-2.4-5.8-4.38-8.57-6.73-3.33-2.83-6.49-5.86-9.76-8.77-.8-.71-1.72-1.29-2.58-1.93-.17.13-.34.26-.51.39Z"/>
  <path class="st1" d="M1215.75,290.05c-.46,2.27-1.29,5.82-1.88,9.41-1.11,6.78-4.78,12.48-7.77,18.44-1.3,2.6-3.44,4.76-5.05,7.21-4.81,7.33-11.46,12.86-17.95,18.54-1.84,1.61-3.97,2.88-6.02,4.23-1.21.79-2.35.53-3.04-.77-.89-1.69-1.83-3.38-2.44-5.17-.23-.66.19-1.81.7-2.41,3.36-3.98,7.04-7.7,10.2-11.82,3.66-4.77,7.06-9.67,9.31-15.43,2.38-6.11,1.11-11.54-1.47-16.89-1.34-2.78-4.01-4.58-6.71-6.22-3.53-2.15-7.43-2.09-11.28-2.47-.89-.09-1.88.16-2.67-.15-.78-.31-1.88-1.06-1.95-1.72-.28-2.66-.56-5.41,1.7-7.59.54-.52.61-1.51.95-2.26,1.54-3.4,3.17-6.76,4.61-10.19.98-2.34,1.64-4.81,2.58-7.16.8-2,1.79-3.93,2.72-5.88.48-1,1.28-1.31,2.38-1.12,2.42.42,4.85.74,7.26,1.2.6.12,1.14.62,1.69.96.81.5,1.55,1.16,2.42,1.5,4.41,1.74,8.27,4.32,11.58,7.65,1.5,1.51,2.75,3.35,3.81,5.21,3.8,6.66,5.76,13.87,6.33,22.91Z"/>
  <path class="st1" d="M1147.36,674.56c-2.34,2.56-4.49,4.28-7.82,4.81-4.89.78-9.67,2.28-14.44,3.66-2.92.84-5.71,2.09-8.61,3.01-.99.31-2.15.36-3.19.22-1.64-.22-2.29-1.54-1.74-3.08.94-2.61,2.32-3.5,5.15-3.68,1.41-.09,2.83-.4,4.18-.83,1.33-.42,2.03-1.53,1.95-2.93-.2-3.5-.07-7.03-1.8-10.33-.79-1.5-.96-3.32-1.45-4.99-.62-2.12-1.28-4.23-1.92-6.34-.78-2.57-1.53-5.16-2.36-7.72-.55-1.71-1.22-3.38-1.84-5.06-.21-.56-.49-1.1-.63-1.68-1.04-4.15-1.93-8.35-3.11-12.46-1.16-4.07-2.57-8.08-3.94-12.09-.58-1.69-3.01-2.84-4.96-2.35-1.91.48-3.77,1.18-5.69,1.63-1.09.26-2.27.32-3.39.26-1.8-.11-2.53-1.35-1.82-3.03.84-1.98,2.38-2.97,4.51-3.42,2.6-.55,5.13-1.46,7.72-2.11,2.49-.63,5.07-.94,7.51-1.72,3.99-1.27,7.85-2.91,11.84-4.19,7.11-2.28,14.09-5.1,21.79-4.98,3.81.06,7.12,1.04,10.48,2.92,3.83,2.15,6.16,5.13,7.6,9.08.2.56.39,1.14.66,1.67,2.49,4.87,2.91,9.88.36,14.78-1.31,2.52-3.19,4.74-4.88,7.05-1.02,1.39-.87,2.29.83,2.55,5.36.81,7.38,5.01,9.21,9.16,2.3,5.24,4.09,10.7,6.22,16.02,1.22,3.05,3.16,3.7,6.21,2.49,2.17-.86,4.37-1.65,6.58-2.4,1.29-.44,3.19.51,3.61,1.68.63,1.74-.08,4.05-1.53,4.52-3.59,1.16-7.23,2.16-10.81,3.35-3.82,1.27-9.09-2.06-10.17-5.73-.19-.63-.33-1.34-.72-1.82-2.44-2.94-2.73-6.64-3.79-10.09-1.37-4.44-3.44-8.58-6.9-11.81-.72-.67-1.92-1.03-2.93-1.12-4.36-.41-8.61.06-12.71,1.75-1.43.59-2.97.89-4.47,1.31-1.67.47-3.34.93-5.02,1.4-1.95.55-3.89,1.18-5.87,1.63-2.12.48-3.04,1.81-2.44,3.75,2.26,7.32,4.58,14.62,6.74,21.96.73,2.49,2.7,3.73,4.47,5.22.23.2.81.13,1.16,0,2.14-.76,4.23-1.66,6.4-2.34,2.53-.8,3.83,1.35,5.78,2.42ZM1141.15,601.28c-3.25.71-6.74,1.26-10.1,2.25-4.92,1.45-9.75,3.23-14.63,4.81-2.6.84-3.78,2.13-3.57,4.87.12,1.61.95,3.15,1.37,4.74.71,2.66,1.12,5.42,2.1,7.97,1.3,3.42,2.54,6.81,2.98,10.47.2,1.69,1.41,2.35,3.02,1.85,3.13-.96,6.54-1.07,9.31-3.14.34-.26.92-.23,1.39-.29,5.13-.61,9.77-2.8,14.58-4.46.59-.2,1.08-.73,1.57-1.17.85-.76,1.72-1.49,2.46-2.35,1.19-1.38,2.38-2.77,3.37-4.29,1.49-2.29,1.2-4.89,1.07-7.48-.3-5.92-3.88-9.65-8.52-12.42-1.68-1-4.01-.91-6.4-1.38Z"/>
  <path class="st1" d="M895.02,727.9c-.3,4.69-.14,9.45-2.91,13.7-1.55,2.39-2.41,5.21-3.92,7.64-.98,1.59-2.43,2.97-3.9,4.16-1.62,1.31-3.46,2.38-5.28,3.42-4.07,2.31-8.42,3.96-12.93,5.17-4.2,1.12-8.43,2.13-12.64,3.18-3.02.76-6.11,1.3-9.04,2.32-3.78,1.32-7.51,2.85-11.1,4.62-2.24,1.1-3.94.53-5.65-.75-1.27-.95-1.06-3.48.56-4.31,2.21-1.13,4.62-1.9,6.95-2.8.55-.21,1.18-.23,1.73-.43,2.34-.87,2.77-2.13,2.06-4.59-.79-2.74-1.32-5.56-1.97-8.34-.23-.99-.45-1.98-.76-2.95-.8-2.55-1.64-5.09-2.48-7.63-.73-2.21-1.58-4.4-2.22-6.64-1.58-5.58-3.03-11.19-4.61-16.76-.54-1.93-1.25-3.81-1.95-5.69-1.34-3.56-2.64-7.14-4.14-10.63-.88-2.05-2.59-2.7-4.75-2-1.71.56-3.36,1.29-5.02,1.98-1.56.65-3,.95-4.04-.89-.18-.32-.64-.51-1.01-.69-1.39-.67-1.68-1.65-.44-2.49,1.91-1.28,3.93-2.55,6.09-3.24,3.02-.96,6.28-1.14,9.31-2.07,4.14-1.28,8.15-2.98,12.25-4.42,1.63-.57,3.35-.9,5.02-1.38,3.27-.94,6.48-2.18,9.8-2.82,4.17-.79,8.42-1.13,12.65-1.58.68-.07,1.41.21,2.09.4,1.45.4,2.86.94,4.32,1.27,4.6,1.02,8.08,3.95,11.6,6.78,3.91,3.14,6.32,7.47,9.06,11.54.39.58.54,1.32.78,1.99.25.73.38,1.53.73,2.21.7,1.38,1.94,2.61,2.22,4.05,1.2,6.21,4.06,12.11,3.52,18.66ZM858.95,688.07c-7.58.21-13.58.73-19.12,3.63-.68.36-1.51.42-2.21.74-2.61,1.17-5.26,2.28-7.77,3.64-.67.36-1.38,1.61-1.25,2.3.67,3.46,1.48,6.91,2.5,10.28,1.4,4.61,3.1,9.13,4.55,13.72.83,2.62,1.38,5.32,2.14,7.96.63,2.17,1.39,4.31,2.07,6.47.68,2.16,1.37,4.31,2.01,6.48.47,1.6.8,3.24,1.33,4.82,1.17,3.44,2.41,6.86,3.67,10.27.18.48.61.91,1.03,1.23.34.26.9.52,1.26.41,2.28-.64,4.52-1.4,6.78-2.09.79-.24,1.61-.37,2.42-.56,1.86-.43,3.74-.79,5.57-1.31,1.77-.51,3.51-1.16,5.24-1.79,1.52-.55,3.17-.91,4.48-1.78,2.42-1.61,4.81-3.33,6.86-5.37,1.83-1.82,3.33-4.04,4.7-6.24.8-1.29.93-2.98,1.63-4.36,1.63-3.23,1.65-6.61,1.09-10.01-.58-3.53-1.71-6.99-2.11-10.53-.48-4.24-2.36-8.01-4.27-11.5-3.13-5.7-7.54-10.63-13.09-14.31-.49-.33-1.04-.68-1.6-.78-3.11-.56-6.23-1.04-7.92-1.32Z"/>
  <path class="st1" d="M912.18,747.66c-.77-.12-1.54-.22-2.31-.38-1.41-.29-2.08-1.48-1.57-2.82.71-1.89,2.03-2.88,4.08-3.32,2.43-.52,4.83-1.34,7.12-2.31.64-.27,1.36-1.62,1.21-2.28-1.13-4.99-2.44-9.94-3.75-14.89-.65-2.48-1.33-4.96-2.14-7.39-.66-1.97-1.55-3.85-2.3-5.79-.28-.72-.45-1.49-.68-2.23-.95-3.13-1.9-6.25-2.85-9.38-.09-.29-.15-.58-.23-.87-.86-3.17-1.69-6.34-2.59-9.49-1.16-4.08-2.1-8.23-4.25-11.97-.61-1.06-1.17-1.63-2.37-1.21-2.03.7-4.1,1.28-6.05,2.15-1.85.83-5.38.57-6.11-.71-1.1-1.93.01-4.33,2.19-4.94,3.03-.86,6-1.93,9.04-2.73,2.02-.53,4.16-.63,6.18-1.15,1.6-.41,3.11-1.2,4.66-1.79,2.79-1.07,5.54-2.27,8.39-3.12,1.72-.52,2.68.92,3.5,2.23.72,1.15.94,2.25-.32,3.16-.76.55-1.55,1.15-2.42,1.44-1.99.66-4.05,1.08-6.05,1.71-2.43.77-3.04,2.11-2.3,4.56.31,1.03.67,2.09.72,3.15.18,3.54,1.66,6.69,2.75,9.96,1.19,3.57,2.22,7.2,3.23,10.82,1.44,5.17,2.74,10.39,4.24,15.54.68,2.34,1.82,4.55,2.57,6.87,1.44,4.44,2.7,8.93,4.16,13.36.2.62,1.1,1.38,1.73,1.43,3.11.26,6.02-.55,8.79-2.03.72-.38,2-.61,2.53-.23,1.16.82,3.01,1.23,2.75,3.36-.18,1.45-1.14,2.13-2.3,2.47-2.51.75-5.09,1.24-7.59,2.01-4.97,1.54-9.9,3.19-14.84,4.82-2.24.74-4.47,1.52-6.71,2.28-.04-.11-.09-.22-.13-.33Z"/>
  <path class="st0" d="M1118.77,506.54c.28.95.45,1.28.45,1.61.02,5.99.22,11.98-.03,17.96-.22,5.37-.93,10.73-1.42,16.09-.01.12-.02.24-.06.35-.77,2.44-1.27,5.01-2.41,7.27-1.06,2.1-2.73,3.9-4.26,5.73-.8.96-1.85,1.7-2.79,2.53-2.23,1.98-6.43,1.7-8.49-.11-5.18-4.55-5.03-10.53-4.37-16.43.64-5.65,3.42-10.49,6.31-15.44,3.59-6.17,8.67-10.83,13.24-16.04,1.04-1.18,2.33-2.14,3.83-3.51Z"/>
</svg>